<?xml version="1.0" encoding="utf-8"?>
<!-- Generator: Adobe Illustrator 16.0.0, SVG Export Plug-In . SVG Version: 6.00 Build 0)  -->
<!DOCTYPE svg PUBLIC "-//W3C//DTD SVG 1.1//EN" "http://www.w3.org/Graphics/SVG/1.1/DTD/svg11.dtd">
<svg version="1.1" xmlns="http://www.w3.org/2000/svg" xmlns:xlink="http://www.w3.org/1999/xlink" x="0px" y="0px" width="150px"
	 height="40px" viewBox="0 0 150 40" enable-background="new 0 0 150 40" xml:space="preserve">
<g id="Layer_1" display="none">
	<g display="inline">
		<g>
			<g>
				<path fill="#3B3B3B" d="M39.093,15.06c-0.104,0.234-0.39,0.494-0.988,0.494h-1.456c-0.26,0-0.442,0.208-0.468,0.442v15.913
					h-1.326c-0.442,0-0.521-0.26-0.521-0.39V15.554h-2.626v-1.274c0-0.312,0.26-0.572,0.572-0.572h7.436L39.093,15.06z"/>
				<path fill="#3B3B3B" d="M51.417,30.063c-0.208,0.468-0.52,1.195-0.598,1.352c-0.13,0.234-0.416,0.494-1.014,0.494h-4.16V14.228
					c0.026-0.286,0.26-0.52,0.572-0.52h4.862l-0.624,1.352c-0.104,0.234-0.39,0.52-0.988,0.52h-1.508
					c-0.26,0-0.442,0.182-0.442,0.442v5.408h2.808c-0.208,0.469-0.52,1.223-0.598,1.378c-0.13,0.234-0.39,0.494-0.988,0.494h-0.78
					c-0.234,0-0.442,0.208-0.442,0.442v6.318H51.417z"/>
				<path fill="#3B3B3B" d="M63.663,29.776c0,1.248-0.988,2.262-2.236,2.313h-1.145c-1.3,0-2.34-1.04-2.34-2.313V15.84
					c0-1.274,1.04-2.314,2.34-2.314h1.145c1.248,0.026,2.236,1.066,2.236,2.314v2.782c0,0.598-0.26,0.884-0.494,0.988l-1.352,0.624
					v-4.083c0-0.546-0.442-0.988-1.014-0.988c-0.546,0-0.988,0.442-0.988,0.988v13.287c0,0.571,0.442,1.014,0.988,1.014
					c0.572,0,1.014-0.442,1.014-1.014v-2.444c0-0.598,0.26-0.884,0.494-1.014c0.156-0.078,0.884-0.391,1.352-0.599V29.776z"/>
				<path fill="#3B3B3B" d="M76.116,13.708c0.571,0,0.754,0.416,0.754,0.728v17.473h-1.872v-7.931
					c-0.026-0.233-0.208-0.416-0.442-0.416h-2.028v8.347h-1.872V14.436c0-0.312,0.182-0.728,0.754-0.728h1.118v7.359
					c0,0.52,0.208,0.649,0.65,0.649h1.82v-8.008H76.116z"/>
				<path fill="#3B3B3B" d="M87.737,18.284v-2.106c0-0.572-0.441-1.014-0.987-1.014c-0.547,0-0.988,0.442-0.988,1.014v1.742
					c0,1.066,0.806,2.444,0.806,2.444l2.236,4.212c0.91,1.664,0.832,2.886,0.832,2.886v2.314c0,1.273-1.04,2.313-2.34,2.313h-1.171
					c-1.248-0.052-2.235-1.065-2.262-2.313v-1.872c0-0.599,0.286-0.885,0.521-1.015c0.155-0.052,0.909-0.39,1.378-0.598v3.172
					c0,0.546,0.441,0.988,0.988,0.988c0.546,0,0.987-0.442,0.987-1.014v-2.08c0-1.066-0.806-2.471-0.806-2.471l-2.236-4.186
					c-0.91-1.664-0.832-2.886-0.832-2.886v-1.872c0-1.274,1.04-2.418,2.34-2.418h1.17c1.248,0.026,2.263,1.17,2.263,2.418v0.702
					c0,0.598-0.286,0.884-0.521,1.014C88.96,17.738,88.231,18.076,87.737,18.284z"/>
				<path fill="#3B3B3B" d="M102.922,31.908h-2.055l-1.638-12.532l-1.638,12.532h-2.055l2.756-18.201h1.015
					c0.78,0,0.91,0.494,0.988,0.988L102.922,31.908z"/>
				<path fill="#3B3B3B" d="M112.438,31.908h-0.806h-0.13c-0.937,0-1.093-1.118-1.118-1.274l-2.601-16.926h1.43
					c0.131,0,0.442,0.104,0.547,0.702l1.742,11.415l1.846-12.117h1.872L112.438,31.908z"/>
				<path fill="#3B3B3B" d="M125.021,31.908h-0.806h-0.13c-0.937,0-1.093-1.118-1.118-1.274l-2.601-16.926h1.43
					c0.131,0,0.442,0.104,0.547,0.702l1.742,11.415l1.846-12.117h1.872L125.021,31.908z"/>
				<path fill="#3B3B3B" d="M137.162,24.342v7.566h-1.326c-0.285,0-0.52-0.234-0.546-0.546v-7.021l-2.235-10.634h1.378
					c0.052,0,0.52,0.026,0.598,0.624l1.196,6.89l1.196-6.89c0.077-0.598,0.546-0.624,0.598-0.624h1.378L137.162,24.342z"/>
			</g>
		</g>
		<g>
			<polygon fill="#3B3B3B" points="14.875,15.403 12.383,10.249 17.604,10.249 18.615,8.059 9.082,8.059 13.899,17.929 			"/>
			<polygon fill="#3B3B3B" points="17.167,24.531 19.659,29.685 14.438,29.685 13.427,31.875 22.96,31.875 18.144,22.005 			"/>
			<linearGradient id="SVGID_1_" gradientUnits="userSpaceOnUse" x1="9.082" y1="19.9668" x2="27.1372" y2="19.9668">
				<stop  offset="0" style="stop-color:#673E98"/>
				<stop  offset="0.1021" style="stop-color:#5F5EAA"/>
				<stop  offset="0.2618" style="stop-color:#4C86C5"/>
				<stop  offset="0.3942" style="stop-color:#2CA3DD"/>
				<stop  offset="0.4925" style="stop-color:#00B6EB"/>
				<stop  offset="0.5456" style="stop-color:#00BDF1"/>
				<stop  offset="0.9913" style="stop-color:#EE4699"/>
			</linearGradient>
			<polygon fill="url(#SVGID_1_)" points="27.137,8.059 26.161,10.249 22.051,10.249 11.338,31.875 9.082,31.875 20.67,8.059 			"/>
			<linearGradient id="SVGID_2_" gradientUnits="userSpaceOnUse" x1="9.1665" y1="19.9668" x2="27.2217" y2="19.9668">
				<stop  offset="0" style="stop-color:#FFFFFF"/>
				<stop  offset="0.9964" style="stop-color:#FFFFFF;stop-opacity:0"/>
			</linearGradient>
			<polygon fill="url(#SVGID_2_)" points="27.222,8.059 27.222,8.059 21.136,8.598 9.167,31.875 9.167,31.875 20.754,8.059 			"/>
			<linearGradient id="SVGID_3_" gradientUnits="userSpaceOnUse" x1="22.0396" y1="9.1543" x2="27.126" y2="9.1543">
				<stop  offset="0" style="stop-color:#FFFFFF"/>
				<stop  offset="0.9964" style="stop-color:#FFFFFF;stop-opacity:0"/>
			</linearGradient>
			<polyline fill="url(#SVGID_3_)" points="25.212,8.849 27.126,8.059 26.149,10.249 22.04,10.249 			"/>
		</g>
	</g>
</g>
<g id="Layer_1_copy">
	<g>
		<g>
			<g>
				<path fill="#FFFFFF" d="M39.093,15.06c-0.104,0.234-0.39,0.494-0.988,0.494h-1.456c-0.26,0-0.442,0.208-0.468,0.442v15.913
					h-1.326c-0.442,0-0.521-0.26-0.521-0.39V15.554h-2.626v-1.274c0-0.312,0.26-0.572,0.572-0.572h7.436L39.093,15.06z"/>
				<path fill="#FFFFFF" d="M51.417,30.063c-0.208,0.468-0.52,1.195-0.598,1.352c-0.13,0.234-0.416,0.494-1.014,0.494h-4.16V14.228
					c0.026-0.286,0.26-0.52,0.572-0.52h4.862l-0.624,1.352c-0.104,0.234-0.39,0.52-0.988,0.52h-1.508
					c-0.26,0-0.442,0.182-0.442,0.442v5.408h2.808c-0.208,0.469-0.52,1.223-0.598,1.378c-0.13,0.234-0.39,0.494-0.988,0.494h-0.78
					c-0.234,0-0.442,0.208-0.442,0.442v6.318H51.417z"/>
				<path fill="#FFFFFF" d="M63.663,29.776c0,1.248-0.988,2.262-2.236,2.313h-1.145c-1.3,0-2.34-1.04-2.34-2.313V15.84
					c0-1.274,1.04-2.314,2.34-2.314h1.145c1.248,0.026,2.236,1.066,2.236,2.314v2.782c0,0.598-0.26,0.884-0.494,0.988l-1.352,0.624
					v-4.083c0-0.546-0.442-0.988-1.014-0.988c-0.546,0-0.988,0.442-0.988,0.988v13.287c0,0.571,0.442,1.014,0.988,1.014
					c0.572,0,1.014-0.442,1.014-1.014v-2.444c0-0.598,0.26-0.884,0.494-1.014c0.156-0.078,0.884-0.391,1.352-0.599V29.776z"/>
				<path fill="#FFFFFF" d="M76.116,13.708c0.571,0,0.754,0.416,0.754,0.728v17.473h-1.872v-7.931
					c-0.026-0.233-0.208-0.416-0.442-0.416h-2.028v8.347h-1.872V14.436c0-0.312,0.182-0.728,0.754-0.728h1.118v7.359
					c0,0.52,0.208,0.649,0.65,0.649h1.82v-8.008H76.116z"/>
				<path fill="#FFFFFF" d="M87.737,18.284v-2.106c0-0.572-0.441-1.014-0.987-1.014c-0.547,0-0.988,0.442-0.988,1.014v1.742
					c0,1.066,0.806,2.444,0.806,2.444l2.236,4.212c0.91,1.664,0.832,2.886,0.832,2.886v2.314c0,1.273-1.04,2.313-2.34,2.313h-1.171
					c-1.248-0.052-2.235-1.065-2.262-2.313v-1.872c0-0.599,0.286-0.885,0.521-1.015c0.155-0.052,0.909-0.39,1.378-0.598v3.172
					c0,0.546,0.441,0.988,0.988,0.988c0.546,0,0.987-0.442,0.987-1.014v-2.08c0-1.066-0.806-2.471-0.806-2.471l-2.236-4.186
					c-0.91-1.664-0.832-2.886-0.832-2.886v-1.872c0-1.274,1.04-2.418,2.34-2.418h1.17c1.248,0.026,2.263,1.17,2.263,2.418v0.702
					c0,0.598-0.286,0.884-0.521,1.014C88.96,17.738,88.231,18.076,87.737,18.284z"/>
				<path fill="#FFFFFF" d="M102.922,31.908h-2.055l-1.638-12.532l-1.638,12.532h-2.055l2.756-18.201h1.015
					c0.78,0,0.91,0.494,0.988,0.988L102.922,31.908z"/>
				<path fill="#FFFFFF" d="M112.438,31.908h-0.806h-0.13c-0.937,0-1.093-1.118-1.118-1.274l-2.601-16.926h1.43
					c0.131,0,0.442,0.104,0.547,0.702l1.742,11.415l1.846-12.117h1.872L112.438,31.908z"/>
				<path fill="#FFFFFF" d="M125.021,31.908h-0.806h-0.13c-0.937,0-1.093-1.118-1.118-1.274l-2.601-16.926h1.43
					c0.131,0,0.442,0.104,0.547,0.702l1.742,11.415l1.846-12.117h1.872L125.021,31.908z"/>
				<path fill="#FFFFFF" d="M137.162,24.342v7.566h-1.326c-0.285,0-0.52-0.234-0.546-0.546v-7.021l-2.235-10.634h1.378
					c0.052,0,0.52,0.026,0.598,0.624l1.196,6.89l1.196-6.89c0.077-0.598,0.546-0.624,0.598-0.624h1.378L137.162,24.342z"/>
			</g>
		</g>
		<g>
			<polygon fill="#3B3B3B" points="14.875,15.403 12.383,10.249 17.604,10.249 18.615,8.059 9.082,8.059 13.899,17.929 			"/>
			<polygon fill="#3B3B3B" points="17.167,24.531 19.659,29.685 14.438,29.685 13.427,31.875 22.96,31.875 18.144,22.005 			"/>
			<linearGradient id="SVGID_4_" gradientUnits="userSpaceOnUse" x1="9.082" y1="19.9668" x2="27.1372" y2="19.9668">
				<stop  offset="0" style="stop-color:#673E98"/>
				<stop  offset="0.1021" style="stop-color:#5F5EAA"/>
				<stop  offset="0.2618" style="stop-color:#4C86C5"/>
				<stop  offset="0.3942" style="stop-color:#2CA3DD"/>
				<stop  offset="0.4925" style="stop-color:#00B6EB"/>
				<stop  offset="0.5456" style="stop-color:#00BDF1"/>
				<stop  offset="0.9913" style="stop-color:#EE4699"/>
			</linearGradient>
			<polygon fill="url(#SVGID_4_)" points="27.137,8.059 26.161,10.249 22.051,10.249 11.338,31.875 9.082,31.875 20.67,8.059 			"/>
			<linearGradient id="SVGID_5_" gradientUnits="userSpaceOnUse" x1="9.1665" y1="19.9668" x2="27.2217" y2="19.9668">
				<stop  offset="0" style="stop-color:#FFFFFF"/>
				<stop  offset="0.9964" style="stop-color:#FFFFFF;stop-opacity:0"/>
			</linearGradient>
			<polygon fill="url(#SVGID_5_)" points="27.222,8.059 27.222,8.059 21.136,8.598 9.167,31.875 9.167,31.875 20.754,8.059 			"/>
			<linearGradient id="SVGID_6_" gradientUnits="userSpaceOnUse" x1="22.0396" y1="9.1543" x2="27.126" y2="9.1543">
				<stop  offset="0" style="stop-color:#FFFFFF"/>
				<stop  offset="0.9964" style="stop-color:#FFFFFF;stop-opacity:0"/>
			</linearGradient>
			<polyline fill="url(#SVGID_6_)" points="25.212,8.849 27.126,8.059 26.149,10.249 22.04,10.249 			"/>
		</g>
	</g>
</g>
</svg>
